<svg xmlns="http://www.w3.org/2000/svg" class="center-align" viewBox="0 0 305 305"><path fill="#039BE5" d="M95.5 152.5c0 31.4 25.6 57 57 57s57-25.6 57-57-25.6-57-57-57-57 25.6-57 57z"/><path fill="#D50000" d="M283.7 77.3c.5-.8.5-1.8 0-2.5-13.3-22.4-32.2-41-54.6-54.2C206 7 180 0 153 0 106 0 62.8 21 33.3 57.4c-.7.8-.7 2-.2 2.8l43 74.4c1 .8 2 1.2 3 1.2h.3c1 0 1.8-1 2-1.8 8.6-32.8 38-55.7 72-55.7 2 0 4.3 0 6.5.2H282c1 0 1.6-.4 2-1.2z"/><path fill="#43A047" d="M175 225c-.6-1-1.6-1.2-2.6-1-6.5 2-13.2 2.8-20 2.8-28.5 0-55-16.8-67.2-42.8v-.2L24 77.8c-.5-1-1.4-1.3-2.3-1.3-1 0-1.7.5-2 1.2C6.7 100.5 0 126.3 0 152.5c0 36.8 13.3 72.3 37.3 100 24 27.4 56.7 45.5 92.4 50.8h.4c1 0 2-.4 3-1.2l43-74c.5-1 .5-2-.2-3z"/><path fill="#FFEB3B" d="M292.2 95.2h-86c-1 0-2 .6-2.3 1.6-1 1-1 2 0 2.7 14 14 22 33 22 53 0 15.2-4.6 29.8-13.3 42.3v.2l-61 106.2c-.5.8-.5 1.8 0 2.6.4.7 1.2 1.2 2 1.2 40.5-.5 78.4-16.5 106.8-45.2 28-28.8 44-67 44-107.3 0-19.2-4-38-11-55.7-.4-1-1.3-1.6-2.3-1.6z"/></svg>
